<?xml version="1.0" encoding="utf-8"?>
<!-- Generator: Adobe Illustrator 19.2.0, SVG Export Plug-In . SVG Version: 6.00 Build 0)  -->
<svg version="1.1" id="Layer_1" xmlns="http://www.w3.org/2000/svg" xmlns:xlink="http://www.w3.org/1999/xlink" x="0px" y="0px"
	 viewBox="0 0 128 128" style="enable-background:new 0 0 128 128;" xml:space="preserve">
<style type="text/css">
	.st0{fill:#F1EAD1;}
</style>
<g>
	<path class="st0" d="M64,46.3c22.3,0,45.9-4.1,45.9-11.7c0-7.6-23.7-11.7-45.9-11.7S18.1,27,18.1,34.6C18.1,42.2,41.7,46.3,64,46.3
		z M64,24.9c25.9,0,43.9,5.1,43.9,9.7s-18,9.7-43.9,9.7s-43.9-5.1-43.9-9.7C20.1,30,38.1,24.9,64,24.9z"/>
	<path class="st0" d="M108.9,44.3c-0.6,0-1,0.4-1,1v8.1c0,4.6-18,9.7-43.9,9.7S20.1,58,20.1,53.4v-8.1c0-0.6-0.4-1-1-1
		c-0.6,0-1,0.4-1,1v8.1c0,7.6,23.7,11.7,45.9,11.7s45.9-4.1,45.9-11.7v-8.1C109.9,44.7,109.5,44.3,108.9,44.3z"/>
	<path class="st0" d="M108.9,64.3c-0.6,0-1,0.4-1,1v8.1c0,4.6-18,9.7-43.9,9.7S20.1,78,20.1,73.4v-8.1c0-0.6-0.4-1-1-1
		c-0.6,0-1,0.4-1,1v8.1c0,7.6,23.7,11.7,45.9,11.7s45.9-4.1,45.9-11.7v-8.1C109.9,64.7,109.5,64.3,108.9,64.3z"/>
	<path class="st0" d="M108.9,84.3c-0.6,0-1,0.4-1,1v8.1c0,4.6-18,9.7-43.9,9.7S20.1,98,20.1,93.4v-8.1c0-0.6-0.4-1-1-1
		c-0.6,0-1,0.4-1,1v8.1c0,7.6,23.7,11.7,45.9,11.7s45.9-4.1,45.9-11.7v-8.1C109.9,84.7,109.5,84.3,108.9,84.3z"/>
</g>
</svg>
