<?xml version="1.0" encoding="utf-8"?>
<!-- Generator: Adobe Illustrator 19.2.0, SVG Export Plug-In . SVG Version: 6.00 Build 0)  -->
<svg version="1.1" id="Layer_1" xmlns="http://www.w3.org/2000/svg" xmlns:xlink="http://www.w3.org/1999/xlink" x="0px" y="0px"
	 viewBox="0 0 128 128" style="enable-background:new 0 0 128 128;" xml:space="preserve">
<style type="text/css">
	.st0{fill:#051118;stroke:#000000;stroke-width:3;stroke-miterlimit:10;}
</style>
<g>
	<rect x="48.6" y="28.1" class="st0" width="31.6" height="2"/>
	<rect x="48.6" y="38.2" class="st0" width="31.6" height="2"/>
	<rect x="48.6" y="48.2" class="st0" width="31.6" height="2"/>
	<path class="st0" d="M110.6,28.1H87.1v-10H40.5v10H17.4v71.4h23.1v10.3h46.6V99.6h23.5V28.1L110.6,28.1z M19.4,97.6V30.1h21.1V38
		H23.9v2h16.6v8H23.9v2h16.6v8H23.9v2h16.6v37.6H19.4z M85.1,107.8H42.5v-8.3h0.1v-2h-0.1V20.2h42.6V107.8z M108.6,97.6H87.1V60h17
		v-2h-17v-8h17v-2h-17v-8h17v-2h-17v-7.8h21.5C108.6,30.1,108.6,97.6,108.6,97.6z"/>
	<path class="st0" d="M80.1,58H48.4v42.5h31.8L80.1,58L80.1,58z M78.1,98.4H50.4V60h27.8L78.1,98.4L78.1,98.4z"/>
</g>
</svg>
