<?xml version="1.0" encoding="utf-8"?>
<!-- Generator: Adobe Illustrator 19.2.0, SVG Export Plug-In . SVG Version: 6.00 Build 0)  -->
<svg version="1.1" id="Layer_1" xmlns="http://www.w3.org/2000/svg" xmlns:xlink="http://www.w3.org/1999/xlink" x="0px" y="0px"
	 viewBox="0 0 128 128" style="enable-background:new 0 0 128 128;" xml:space="preserve">
<style type="text/css">
	.st0{fill:#051118;stroke:#000000;stroke-width:3;stroke-miterlimit:10;}
</style>
<g>
	<path class="st0" d="M39,60h50c11.6,0,21-9.4,21-21s-9.4-21-21-21H39c-11.6,0-21,9.4-21,21S27.4,60,39,60z M39,20h50
		c10.5,0,19,8.5,19,19s-8.5,19-19,19H39c-10.5,0-19-8.5-19-19S28.5,20,39,20z"/>
	<path class="st0" d="M39.2,50.4c6.3,0,11.4-5.1,11.4-11.4s-5.1-11.4-11.4-11.4S27.8,32.7,27.8,39S32.9,50.4,39.2,50.4z M39.2,29.6
		c5.2,0,9.4,4.2,9.4,9.4s-4.2,9.4-9.4,9.4s-9.4-4.2-9.4-9.4S34,29.6,39.2,29.6z"/>
	<path class="st0" d="M89,68H39c-11.6,0-21,9.4-21,21s9.4,21,21,21h50c11.6,0,21-9.4,21-21S100.6,68,89,68z M89,108H39
		c-10.5,0-19-8.5-19-19s8.5-19,19-19h50c10.5,0,19,8.5,19,19S99.5,108,89,108z"/>
	<path class="st0" d="M88.8,77.6c-6.3,0-11.4,5.1-11.4,11.4s5.1,11.4,11.4,11.4s11.4-5.1,11.4-11.4S95.1,77.6,88.8,77.6z M88.8,98.4
		c-5.2,0-9.4-4.2-9.4-9.4s4.2-9.4,9.4-9.4c5.2,0,9.4,4.2,9.4,9.4S94,98.4,88.8,98.4z"/>
</g>
</svg>
